<?xml version="1.0" encoding="UTF-8" standalone="no"?>
<svg
   xml:space="preserve"
   viewBox="0 0 111.192 111.192"
   version="1.1"
   id="svg2"
   sodipodi:docname="logo-circle.svg"
   inkscape:version="1.4.2 (ebf0e940d0, 2025-05-08)"
   xmlns:inkscape="http://www.inkscape.org/namespaces/inkscape"
   xmlns:sodipodi="http://sodipodi.sourceforge.net/DTD/sodipodi-0.dtd"
   xmlns="http://www.w3.org/2000/svg"
   xmlns:svg="http://www.w3.org/2000/svg"><sodipodi:namedview
     id="namedview2"
     pagecolor="#505050"
     bordercolor="#eeeeee"
     borderopacity="1"
     inkscape:showpageshadow="0"
     inkscape:pageopacity="0"
     inkscape:pagecheckerboard="0"
     inkscape:deskcolor="#505050"
     inkscape:zoom="3.00939"
     inkscape:cx="0.16614663"
     inkscape:cy="43.530417"
     inkscape:window-width="1536"
     inkscape:window-height="795"
     inkscape:window-x="0"
     inkscape:window-y="0"
     inkscape:window-maximized="1"
     inkscape:current-layer="svg2" /><defs
     id="defs2"><linearGradient
       id="a"><stop
         offset="0.19000003"
         stop-color="#51d8ff"
         id="stop1"
         style="stop-color:#17cbff;stop-opacity:1;" /><stop
         offset="1"
         stop-color="#b8cd43"
         id="stop2"
         style="stop-color:#a3df01;stop-opacity:1;" /></linearGradient><linearGradient
       id="b"
       x1="66.44"
       x2="144.459"
       y1="148.5"
       y2="148.5"
       gradientUnits="userSpaceOnUse"
       href="#a"
       gradientTransform="translate(-49.404,-92.904)" /></defs><circle
     cx="55.596001"
     cy="55.596001"
     r="55.596001"
     fill="#070a1f"
     id="circle2"
     style="fill:#1c1c1c;fill-opacity:1" /><path
     fill="url(#b)"
     d="m 33.077,59.169 c 5.76,1.02 9.187,1.677 9.187,4.74 0,2.77 -3.062,4.01 -10.645,4.01 -4.958,0 -9.48,-0.438 -13.854,-1.313 v 6.27 c 4.812,1.022 9.114,1.605 14.291,1.605 12.031,0 18.448,-3.427 18.448,-11.01 0,-9.115 -9.333,-10.427 -16.406,-11.594 -4.52,-0.729 -8.823,-1.385 -8.823,-4.812 0,-2.552 2.334,-3.865 9.77,-3.865 4.813,0 9.115,0.51 13.126,1.459 v -6.27 c -4.448,-1.095 -8.532,-1.678 -13.563,-1.678 -11.885,0 -17.572,3.427 -17.572,10.791 0,9.625 9.916,10.573 16.041,11.667 M 54.879,37.367 67.712,69.304 c 1.53,3.937 3.354,5.177 7.291,5.177 3.937,0 5.688,-1.24 7.292,-5.177 l 12.76,-31.937 h -8.823 l -10.354,27.78 c -0.219,0.73 -0.583,0.803 -0.875,0.803 -0.291,0 -0.583,-0.073 -0.875,-0.802 L 63.774,37.368 Z"
     aria-label="sv"
     font-family="'LT Wave'"
     font-size="72.915px"
     font-weight="500"
     opacity="0.996"
     style="line-height:1.2;-inkscape-font-specification:'LT Wave Medium';fill:url(#b)"
     id="path2" /></svg>
