<?xml version="1.0" encoding="UTF-8" standalone="no"?>
<!-- Created with Inkscape (http://www.inkscape.org/) -->

<svg
   width="35.877102mm"
   height="5.2917399mm"
   viewBox="0 0 35.877102 5.2917399"
   version="1.1"
   id="svg1"
   inkscape:version="1.4.2 (ebf0e940d0, 2025-05-08)"
   sodipodi:docname="logo-text-color.svg"
   xmlns:inkscape="http://www.inkscape.org/namespaces/inkscape"
   xmlns:sodipodi="http://sodipodi.sourceforge.net/DTD/sodipodi-0.dtd"
   xmlns:xlink="http://www.w3.org/1999/xlink"
   xmlns="http://www.w3.org/2000/svg"
   xmlns:svg="http://www.w3.org/2000/svg">
  <sodipodi:namedview
     id="namedview1"
     pagecolor="#505050"
     bordercolor="#eeeeee"
     borderopacity="1"
     inkscape:showpageshadow="0"
     inkscape:pageopacity="0"
     inkscape:pagecheckerboard="0"
     inkscape:deskcolor="#505050"
     inkscape:document-units="mm"
     inkscape:zoom="2.6777344"
     inkscape:cx="11.763676"
     inkscape:cy="-31.369803"
     inkscape:window-width="1536"
     inkscape:window-height="795"
     inkscape:window-x="0"
     inkscape:window-y="0"
     inkscape:window-maximized="1"
     inkscape:current-layer="layer1" />
  <defs
     id="defs1">
    <linearGradient
       xlink:href="#linearGradient1"
       id="linearGradient2"
       x1="-48.154171"
       y1="152.39999"
       x2="216.42917"
       y2="152.39999"
       gradientUnits="userSpaceOnUse"
       gradientTransform="matrix(0.13559852,0,0,0.13559852,135.20208,103.18758)" />
    <linearGradient
       id="linearGradient1">
      <stop
         style="stop-color:#17cbff;stop-opacity:1;"
         offset="0.19490534"
         id="stop1" />
      <stop
         style="stop-color:#a3df01;stop-opacity:1;"
         offset="1"
         id="stop2" />
    </linearGradient>
  </defs>
  <g
     inkscape:label="Layer 1"
     inkscape:groupmode="layer"
     id="layer1"
     transform="translate(-135.20208,-103.1875)">
    <path
       style="font-weight:500;font-size:21.1667px;line-height:1.2;font-family:'LT Wave';-inkscape-font-specification:'LT Wave Medium';fill:url(#linearGradient2);fill-opacity:1;stroke-width:0.9417"
       d="m 137.44951,106.33397 c 0.80704,0.14302 1.28716,0.23496 1.28716,0.66402 0,0.38819 -0.42906,0.56185 -1.49147,0.56185 -0.69466,0 -1.32803,-0.0613 -1.94096,-0.18388 v 0.87854 c 0.67422,0.14302 1.27694,0.22474 2.00225,0.22474 1.68557,0 2.58454,-0.48013 2.58454,-1.54255 0,-1.27694 -1.30759,-1.46082 -2.29851,-1.62427 -0.63335,-0.10216 -1.23608,-0.1941 -1.23608,-0.67423 0,-0.35755 0.3269,-0.54143 1.36889,-0.54143 0.67422,0 1.27694,0.0715 1.8388,0.20432 v -0.87854 c -0.62315,-0.15324 -1.19521,-0.23496 -1.9001,-0.23496 -1.66514,0 -2.46195,0.48013 -2.46195,1.5119 0,1.34846 1.38932,1.48126 2.24743,1.63449 z m 3.15661,-0.56185 v 0.12258 c 0,1.74687 0.88875,2.58454 2.70713,2.58454 1.80815,0 2.68669,-0.83767 2.68669,-2.58454 v -0.12258 c 0,-1.74687 -0.87854,-2.58454 -2.68669,-2.58454 -1.81838,0 -2.70713,0.83767 -2.70713,2.58454 z m 1.15437,0.0919 v -0.0613 c 0,-1.19522 0.4597,-1.69579 1.55276,-1.69579 1.08285,0 1.53233,0.50057 1.53233,1.69579 v 0.0613 c 0,1.19522 -0.44948,1.69578 -1.53233,1.69578 -1.09307,0 -1.55277,-0.50056 -1.55276,-1.69578 z m 4.95454,-0.49035 v 3.0136 h 1.15436 v -2.97274 c 0,-0.90918 0.40862,-1.30759 1.3791,-1.30759 0.95005,0 1.35867,0.39841 1.35867,1.30759 v 2.97274 h 1.15436 v -3.0136 c 0,-1.52212 -0.75594,-2.18613 -2.51303,-2.18613 -1.7775,0 -2.53346,0.66401 -2.53346,2.18613 z m 5.7616,0.39841 v 0.12258 c 0,1.74687 0.88874,2.58454 2.70712,2.58454 1.80815,0 2.6867,-0.83767 2.6867,-2.58454 v -0.12258 c 0,-1.74687 -0.87855,-2.58454 -2.6867,-2.58454 -1.81838,0 -2.70712,0.83767 -2.70712,2.58454 z m 1.15435,0.0919 v -0.0613 c 0,-1.19522 0.4597,-1.69579 1.55276,-1.69579 1.08286,0 1.53234,0.50057 1.53234,1.69579 v 0.0613 c 0,1.19522 -0.44948,1.69578 -1.53234,1.69578 -1.09306,0 -1.55276,-0.50056 -1.55276,-1.69578 z m 4.46421,-2.58454 1.79793,4.47442 c 0.21452,0.55164 0.46991,0.7253 1.02155,0.7253 0.55165,0 0.79682,-0.17366 1.02156,-0.7253 l 1.78773,-4.47442 h -1.23609 l -1.45061,3.89213 c -0.0306,0.10216 -0.0817,0.11237 -0.12259,0.11237 -0.0409,0 -0.0817,-0.0102 -0.12257,-0.11237 l -1.45062,-3.89213 z m 6.2928,0 v 5.10779 h 1.15434 v -5.10779 z m 4.24967,3.05445 c 0.80703,0.14302 1.28716,0.23496 1.28716,0.66402 0,0.38819 -0.42905,0.56185 -1.49147,0.56185 -0.69466,0 -1.32803,-0.0613 -1.94096,-0.18388 v 0.87854 c 0.67423,0.14302 1.27694,0.22474 2.00225,0.22474 1.68557,0 2.58454,-0.48013 2.58454,-1.54255 0,-1.27694 -1.30759,-1.46082 -2.2985,-1.62427 -0.63337,-0.10216 -1.23608,-0.1941 -1.23608,-0.67423 0,-0.35755 0.32689,-0.54143 1.36888,-0.54143 0.67423,0 1.27695,0.0715 1.8388,0.20432 v -0.87854 c -0.62315,-0.15324 -1.19522,-0.23496 -1.90009,-0.23496 -1.66514,0 -2.46195,0.48013 -2.46195,1.5119 0,1.34846 1.38932,1.48126 2.24742,1.63449 z"
       id="text1"
       aria-label="sonovis" />
  </g>
</svg>
